<svg width="128" height="128" viewBox="0 0 128 128" fill="none" xmlns="http://www.w3.org/2000/svg">
<path fill-rule="evenodd" clip-rule="evenodd" d="M64 126C98.2417 126 126 98.2417 126 64C126 29.7583 98.2417 2 64 2C29.7583 2 2 29.7583 2 64C2 98.2417 29.7583 126 64 126ZM63.4414 18.1712C57.1843 18.1712 51.2284 19.4073 45.7953 21.644L41.9884 12.397C48.6081 9.67175 55.8558 8.17116 63.4414 8.17116C94.5833 8.17116 119.829 33.4167 119.829 64.5585C119.829 80.1281 113.512 94.2318 103.313 104.43L98.1185 109.625L95.1917 102.887L87.9004 86.1L97.0725 82.1161L101.171 91.5521C106.623 83.9466 109.829 74.6299 109.829 64.5585C109.829 38.9395 89.0605 18.1712 63.4414 18.1712ZM28.7643 19.4918L31.6911 26.2302L38.9824 43.017L29.8103 47.0009L25.7118 37.565C20.2595 45.1705 17.054 54.4872 17.054 64.5585C17.054 90.1776 37.8224 110.946 63.4414 110.946C69.6985 110.946 75.6544 109.71 81.0875 107.473L84.8944 116.72C78.2747 119.445 71.027 120.946 63.4414 120.946C32.2995 120.946 7.05402 95.7004 7.05402 64.5585C7.05402 48.989 13.3709 34.8853 23.5695 24.6866L28.7643 19.4918ZM87.7882 67.2009L54.884 86.4012C52.4467 87.8235 49.4 86.0456 49.4 83.2012V44.8006C49.4 41.9561 52.4467 40.1783 54.8841 41.6005L87.7882 60.8008C90.2256 62.2231 90.2256 65.7787 87.7882 67.2009Z" fill="#F27983"/>
</svg>
