<svg width="352" height="128" viewBox="0 0 351 128" fill="none" xmlns="http://www.w3.org/2000/svg">
    <g clip-path="url(#clip0_1128_104)">
        <path fill-rule="evenodd" clip-rule="evenodd"
            d="M64 126C98.2417 126 126 98.2417 126 64C126 29.7583 98.2417 2 64 2C29.7583 2 2 29.7583 2 64C2 98.2417 29.7583 126 64 126ZM63.4414 18.1712C57.1843 18.1712 51.2284 19.4073 45.7953 21.644L41.9884 12.397C48.6081 9.67175 55.8558 8.17116 63.4414 8.17116C94.5833 8.17116 119.829 33.4167 119.829 64.5585C119.829 80.1281 113.512 94.2318 103.313 104.43L98.1185 109.625L95.1917 102.887L87.9004 86.1L97.0725 82.1161L101.171 91.5521C106.623 83.9466 109.829 74.6299 109.829 64.5585C109.829 38.9395 89.0605 18.1712 63.4414 18.1712ZM28.7643 19.4918L31.6911 26.2302L38.9824 43.017L29.8103 47.0009L25.7118 37.565C20.2595 45.1705 17.054 54.4872 17.054 64.5585C17.054 90.1776 37.8224 110.946 63.4414 110.946C69.6985 110.946 75.6544 109.71 81.0875 107.473L84.8944 116.72C78.2747 119.445 71.027 120.946 63.4414 120.946C32.2995 120.946 7.05402 95.7004 7.05402 64.5585C7.05402 48.989 13.3709 34.8853 23.5695 24.6866L28.7643 19.4918ZM87.7882 67.2009L54.884 86.4012C52.4467 87.8235 49.4 86.0456 49.4 83.2012V44.8006C49.4 41.9561 52.4467 40.1783 54.8841 41.6005L87.7882 60.8008C90.2256 62.2231 90.2256 65.7787 87.7882 67.2009Z"
            fill="#F27983" />
        <path
            d="M180.625 78.1406C180.625 76.9219 180.438 75.8281 180.062 74.8594C179.719 73.8594 179.062 72.9531 178.094 72.1406C177.125 71.2969 175.766 70.4688 174.016 69.6562C172.266 68.8438 170 68 167.219 67.125C164.125 66.125 161.188 65 158.406 63.75C155.656 62.5 153.219 61.0469 151.094 59.3906C149 57.7031 147.344 55.75 146.125 53.5312C144.938 51.3125 144.344 48.7344 144.344 45.7969C144.344 42.9531 144.969 40.375 146.219 38.0625C147.469 35.7188 149.219 33.7188 151.469 32.0625C153.719 30.375 156.375 29.0781 159.438 28.1719C162.531 27.2656 165.922 26.8125 169.609 26.8125C174.641 26.8125 179.031 27.7187 182.781 29.5312C186.531 31.3438 189.438 33.8281 191.5 36.9844C193.594 40.1406 194.641 43.75 194.641 47.8125H180.672C180.672 45.8125 180.25 44.0625 179.406 42.5625C178.594 41.0312 177.344 39.8281 175.656 38.9531C174 38.0781 171.906 37.6406 169.375 37.6406C166.938 37.6406 164.906 38.0156 163.281 38.7656C161.656 39.4844 160.438 40.4688 159.625 41.7188C158.812 42.9375 158.406 44.3125 158.406 45.8438C158.406 47 158.688 48.0469 159.25 48.9844C159.844 49.9219 160.719 50.7969 161.875 51.6094C163.031 52.4219 164.453 53.1875 166.141 53.9062C167.828 54.625 169.781 55.3281 172 56.0156C175.719 57.1406 178.984 58.4062 181.797 59.8125C184.641 61.2188 187.016 62.7969 188.922 64.5469C190.828 66.2969 192.266 68.2812 193.234 70.5C194.203 72.7188 194.688 75.2344 194.688 78.0469C194.688 81.0156 194.109 83.6719 192.953 86.0156C191.797 88.3594 190.125 90.3438 187.938 91.9688C185.75 93.5938 183.141 94.8281 180.109 95.6719C177.078 96.5156 173.688 96.9375 169.938 96.9375C166.562 96.9375 163.234 96.5 159.953 95.625C156.672 94.7188 153.688 93.3594 151 91.5469C148.344 89.7344 146.219 87.4219 144.625 84.6094C143.031 81.7969 142.234 78.4688 142.234 74.625H156.344C156.344 76.75 156.672 78.5469 157.328 80.0156C157.984 81.4844 158.906 82.6719 160.094 83.5781C161.312 84.4844 162.75 85.1406 164.406 85.5469C166.094 85.9531 167.938 86.1562 169.938 86.1562C172.375 86.1562 174.375 85.8125 175.938 85.125C177.531 84.4375 178.703 83.4844 179.453 82.2656C180.234 81.0469 180.625 79.6719 180.625 78.1406ZM218.453 90.2812L231.906 45.2812H246.391L226 103.641C225.562 104.922 224.969 106.297 224.219 107.766C223.5 109.234 222.516 110.625 221.266 111.938C220.047 113.281 218.5 114.375 216.625 115.219C214.781 116.062 212.516 116.484 209.828 116.484C208.547 116.484 207.5 116.406 206.688 116.25C205.875 116.094 204.906 115.875 203.781 115.594V105.703C204.125 105.703 204.484 105.703 204.859 105.703C205.234 105.734 205.594 105.75 205.938 105.75C207.719 105.75 209.172 105.547 210.297 105.141C211.422 104.734 212.328 104.109 213.016 103.266C213.703 102.453 214.25 101.391 214.656 100.078L218.453 90.2812ZM212.828 45.2812L223.844 82.0312L225.766 96.3281L216.578 97.3125L198.344 45.2812H212.828ZM265 56.1094V96H251.5V45.2812H264.156L265 56.1094ZM263.031 68.8594H259.375C259.375 65.1094 259.859 61.7344 260.828 58.7344C261.797 55.7031 263.156 53.125 264.906 51C266.656 48.8438 268.734 47.2031 271.141 46.0781C273.578 44.9219 276.297 44.3438 279.297 44.3438C281.672 44.3438 283.844 44.6875 285.812 45.375C287.781 46.0625 289.469 47.1562 290.875 48.6562C292.312 50.1562 293.406 52.1406 294.156 54.6094C294.938 57.0781 295.328 60.0938 295.328 63.6562V96H281.734V63.6094C281.734 61.3594 281.422 59.6094 280.797 58.3594C280.172 57.1094 279.25 56.2344 278.031 55.7344C276.844 55.2031 275.375 54.9375 273.625 54.9375C271.812 54.9375 270.234 55.2969 268.891 56.0156C267.578 56.7344 266.484 57.7344 265.609 59.0156C264.766 60.2656 264.125 61.7344 263.688 63.4219C263.25 65.1094 263.031 66.9219 263.031 68.8594ZM326.547 86.3906C328.203 86.3906 329.672 86.0781 330.953 85.4531C332.234 84.7969 333.234 83.8906 333.953 82.7344C334.703 81.5469 335.094 80.1562 335.125 78.5625H347.828C347.797 82.125 346.844 85.2969 344.969 88.0781C343.094 90.8281 340.578 93 337.422 94.5938C334.266 96.1562 330.734 96.9375 326.828 96.9375C322.891 96.9375 319.453 96.2812 316.516 94.9688C313.609 93.6562 311.188 91.8438 309.25 89.5312C307.312 87.1875 305.859 84.4688 304.891 81.375C303.922 78.25 303.438 74.9062 303.438 71.3438V69.9844C303.438 66.3906 303.922 63.0469 304.891 59.9531C305.859 56.8281 307.312 54.1094 309.25 51.7969C311.188 49.4531 313.609 47.625 316.516 46.3125C319.422 45 322.828 44.3438 326.734 44.3438C330.891 44.3438 334.531 45.1406 337.656 46.7344C340.812 48.3281 343.281 50.6094 345.062 53.5781C346.875 56.5156 347.797 60 347.828 64.0312H335.125C335.094 62.3438 334.734 60.8125 334.047 59.4375C333.391 58.0625 332.422 56.9688 331.141 56.1562C329.891 55.3125 328.344 54.8906 326.5 54.8906C324.531 54.8906 322.922 55.3125 321.672 56.1562C320.422 56.9688 319.453 58.0938 318.766 59.5312C318.078 60.9375 317.594 62.5469 317.312 64.3594C317.062 66.1406 316.938 68.0156 316.938 69.9844V71.3438C316.938 73.3125 317.062 75.2031 317.312 77.0156C317.562 78.8281 318.031 80.4375 318.719 81.8438C319.438 83.25 320.422 84.3594 321.672 85.1719C322.922 85.9844 324.547 86.3906 326.547 86.3906Z"
            fill="#F27983" />
    </g>
    <defs>
        <clipPath id="clip0_1128_104">
            <rect width="351" height="128" fill="white" />
        </clipPath>
    </defs>
</svg>