<?xml version="1.0" encoding="UTF-8" standalone="yes"?>
<svg xmlns="http://www.w3.org/2000/svg">
  <defs>
    <g id="admin">
      <g>
        <circle cx="17" cy="15.5" fill-rule="evenodd" r="1.12" />
        <path
          d="M17,17.5c-0.73,0-2.19,0.36-2.24,1.08c0.5,0.71,1.32,1.17,2.24,1.17 s1.74-0.46,2.24-1.17C19.19,17.86,17.73,17.5,17,17.5z"
          fill-rule="evenodd" />
        <path
          d="M18,11.09V6.27L10.5,3L3,6.27v4.91c0,4.54,3.2,8.79,7.5,9.82 c0.55-0.13,1.08-0.32,1.6-0.55C13.18,21.99,14.97,23,17,23c3.31,0,6-2.69,6-6C23,14.03,20.84,11.57,18,11.09z M11,17 c0,0.56,0.08,1.11,0.23,1.62c-0.24,0.11-0.48,0.22-0.73,0.3c-3.17-1-5.5-4.24-5.5-7.74v-3.6l5.5-2.4l5.5,2.4v3.51 C13.16,11.57,11,14.03,11,17z M17,21c-2.21,0-4-1.79-4-4c0-2.21,1.79-4,4-4s4,1.79,4,4C21,19.21,19.21,21,17,21z"
          fill-rule="evenodd" />
      </g>
    </g>
    <g id="apply">
      <path d="M0 0h24v24H0V0z" fill="none" />
      <path d="M9 16.2L4.8 12l-1.4 1.4L9 19 21 7l-1.4-1.4L9 16.2z" />
    </g>
    <g id="cdn">
      <path d="M0 0h24v24H0V0z" fill="none" />
      <path
        d="M12 6c2.62 0 4.88 1.86 5.39 4.43l.3 1.5 1.53.11c1.56.1 2.78 1.41 2.78 2.96 0 1.65-1.35 3-3 3H6c-2.21 0-4-1.79-4-4 0-2.05 1.53-3.76 3.56-3.97l1.07-.11.5-.95C8.08 7.14 9.94 6 12 6m0-2C9.11 4 6.6 5.64 5.35 8.04 2.34 8.36 0 10.91 0 14c0 3.31 2.69 6 6 6h13c2.76 0 5-2.24 5-5 0-2.64-2.05-4.78-4.65-4.96C18.67 6.59 15.64 4 12 4z" />
    </g>
    <g id="close">
      <path d="M0 0h24v24H0V0z" fill="none" />
      <path
        d="M19 6.41L17.59 5 12 10.59 6.41 5 5 6.41 10.59 12 5 17.59 6.41 19 12 13.41 17.59 19 19 17.59 13.41 12 19 6.41z" />
    </g>
    <g id="dark">
      <rect fill="none" height="24" width="24" />
      <path
        d="M9.37,5.51C9.19,6.15,9.1,6.82,9.1,7.5c0,4.08,3.32,7.4,7.4,7.4c0.68,0,1.35-0.09,1.99-0.27C17.45,17.19,14.93,19,12,19 c-3.86,0-7-3.14-7-7C5,9.07,6.81,6.55,9.37,5.51z M12,3c-4.97,0-9,4.03-9,9s4.03,9,9,9s9-4.03,9-9c0-0.46-0.04-0.92-0.1-1.36 c-0.98,1.37-2.58,2.26-4.4,2.26c-2.98,0-5.4-2.42-5.4-5.4c0-1.81,0.89-3.42,2.26-4.4C12.92,3.04,12.46,3,12,3L12,3z" />
    </g>
    <g id="debug">
      <path
        d="M13,11.33L18,18H6l5-6.67V6h2 M15.96,4H8.04C7.62,4,7.39,4.48,7.65,4.81L9,6.5v4.17L3.2,18.4C2.71,19.06,3.18,20,4,20h16 c0.82,0,1.29-0.94,0.8-1.6L15,10.67V6.5l1.35-1.69C16.61,4.48,16.38,4,15.96,4L15.96,4z" />
    </g>
    <g id="edit">
      <path d="M0 0h24v24H0V0z" fill="none" />
      <path
        d="M14.06 9.02l.92.92L5.92 19H5v-.92l9.06-9.06M17.66 3c-.25 0-.51.1-.7.29l-1.83 1.83 3.75 3.75 1.83-1.83c.39-.39.39-1.02 0-1.41l-2.34-2.34c-.2-.2-.45-.29-.71-.29zm-3.6 3.19L3 17.25V21h3.75L17.81 9.94l-3.75-3.75z" />
    </g>
    <g id="file">
      <path d="M0 0h24v24H0V0z" fill="none" />
      <path
        d="M8 16h8v2H8zm0-4h8v2H8zm6-10H6c-1.1 0-2 .9-2 2v16c0 1.1.89 2 1.99 2H18c1.1 0 2-.9 2-2V8l-6-6zm4 18H6V4h7v5h5v11z" />
    </g>
    <g id="info">
      <path d="M0 0h24v24H0V0z" fill="none" />
      <path
        d="M11 7h2v2h-2zm0 4h2v6h-2zm1-9C6.48 2 2 6.48 2 12s4.48 10 10 10 10-4.48 10-10S17.52 2 12 2zm0 18c-4.41 0-8-3.59-8-8s3.59-8 8-8 8 3.59 8 8-3.59 8-8 8z" />
    </g>
    <g id="light">
      <rect fill="none" height="24" width="24" />
      <path
        d="M12,9c1.65,0,3,1.35,3,3s-1.35,3-3,3s-3-1.35-3-3S10.35,9,12,9 M12,7c-2.76,0-5,2.24-5,5s2.24,5,5,5s5-2.24,5-5 S14.76,7,12,7L12,7z M2,13l2,0c0.55,0,1-0.45,1-1s-0.45-1-1-1l-2,0c-0.55,0-1,0.45-1,1S1.45,13,2,13z M20,13l2,0c0.55,0,1-0.45,1-1 s-0.45-1-1-1l-2,0c-0.55,0-1,0.45-1,1S19.45,13,20,13z M11,2v2c0,0.55,0.45,1,1,1s1-0.45,1-1V2c0-0.55-0.45-1-1-1S11,1.45,11,2z M11,20v2c0,0.55,0.45,1,1,1s1-0.45,1-1v-2c0-0.55-0.45-1-1-1C11.45,19,11,19.45,11,20z M5.99,4.58c-0.39-0.39-1.03-0.39-1.41,0 c-0.39,0.39-0.39,1.03,0,1.41l1.06,1.06c0.39,0.39,1.03,0.39,1.41,0s0.39-1.03,0-1.41L5.99,4.58z M18.36,16.95 c-0.39-0.39-1.03-0.39-1.41,0c-0.39,0.39-0.39,1.03,0,1.41l1.06,1.06c0.39,0.39,1.03,0.39,1.41,0c0.39-0.39,0.39-1.03,0-1.41 L18.36,16.95z M19.42,5.99c0.39-0.39,0.39-1.03,0-1.41c-0.39-0.39-1.03-0.39-1.41,0l-1.06,1.06c-0.39,0.39-0.39,1.03,0,1.41 s1.03,0.39,1.41,0L19.42,5.99z M7.05,18.36c0.39-0.39,0.39-1.03,0-1.41c-0.39-0.39-1.03-0.39-1.41,0l-1.06,1.06 c-0.39,0.39-0.39,1.03,0,1.41s1.03,0.39,1.41,0L7.05,18.36z" />
    </g>
    <g id="playlist">
      <rect fill="none" height="24" width="24" />
    </g>
    <g id="search">
      <path d="M0 0h24v24H0V0z" fill="none" />
      <path
        d="M15.5 14h-.79l-.28-.27C15.41 12.59 16 11.11 16 9.5 16 5.91 13.09 3 9.5 3S3 5.91 3 9.5 5.91 16 9.5 16c1.61 0 3.09-.59 4.23-1.57l.27.28v.79l5 4.99L20.49 19l-4.99-5zm-6 0C7.01 14 5 11.99 5 9.5S7.01 5 9.5 5 14 7.01 14 9.5 11.99 14 9.5 14z" />
    </g>
    <g id="share">
      <path
        d="M18 16.08c-.76 0-1.44.3-1.96.77L8.91 12.7c.05-.23.09-.46.09-.7s-.04-.47-.09-.7l7.05-4.11c.54.5 1.25.81 2.04.81 1.66 0 3-1.34 3-3s-1.34-3-3-3-3 1.34-3 3c0 .24.04.47.09.7L8.04 9.81C7.5 9.31 6.79 9 6 9c-1.66 0-3 1.34-3 3s1.34 3 3 3c.79 0 1.5-.31 2.04-.81l7.12 4.16c-.05.21-.08.43-.08.65 0 1.61 1.31 2.92 2.92 2.92s2.92-1.31 2.92-2.92c0-1.61-1.31-2.92-2.92-2.92zM18 4c.55 0 1 .45 1 1s-.45 1-1 1-1-.45-1-1 .45-1 1-1zM6 13c-.55 0-1-.45-1-1s.45-1 1-1 1 .45 1 1-.45 1-1 1zm12 7.02c-.55 0-1-.45-1-1s.45-1 1-1 1 .45 1 1-.45 1-1 1z" />
    </g>
    <g id="youtube">
      <path d="M0 0h24v24H0V0z" fill="none" />
      <path
        d="M10 16.5l6-4.5-6-4.5zM12 2C6.48 2 2 6.48 2 12s4.48 10 10 10 10-4.48 10-10S17.52 2 12 2zm0 18c-4.41 0-8-3.59-8-8s3.59-8 8-8 8 3.59 8 8-3.59 8-8 8z" />
    </g>
  </defs>
</svg>