<?xml version="1.0" standalone="no"?>
<!DOCTYPE svg PUBLIC "-//W3C//DTD SVG 20010904//EN"
 "http://www.w3.org/TR/2001/REC-SVG-20010904/DTD/svg10.dtd">
<svg version="1.0" xmlns="http://www.w3.org/2000/svg"
 width="700.000000pt" height="700.000000pt" viewBox="0 0 700.000000 700.000000"
 preserveAspectRatio="xMidYMid meet">
<metadata>
Created by potrace 1.14, written by Peter Selinger 2001-2017
</metadata>
<g transform="translate(0.000000,700.000000) scale(0.100000,-0.100000)"
fill="#000000" stroke="none">
<path d="M3269 6886 c-2 -2 -40 -7 -84 -10 -44 -4 -91 -9 -105 -11 -14 -2 -45
-7 -70 -10 -160 -21 -447 -90 -615 -148 -184 -64 -434 -179 -598 -276 -43 -25
-86 -50 -96 -56 -30 -18 -206 -138 -211 -145 -3 -3 -21 -17 -40 -30 -19 -13
-40 -29 -46 -35 -6 -5 -28 -23 -49 -40 -188 -148 -453 -430 -611 -650 -251
-350 -438 -759 -540 -1180 -14 -60 -28 -121 -30 -135 -3 -14 -7 -36 -9 -50
-11 -53 -13 -69 -20 -121 -4 -30 -9 -65 -11 -79 -26 -170 -25 -686 1 -829 1
-9 5 -38 9 -66 34 -252 126 -584 226 -821 142 -332 358 -679 580 -929 45 -51
262 -269 315 -316 237 -212 633 -458 940 -583 109 -44 300 -112 340 -121 11
-2 54 -13 95 -24 100 -27 252 -59 344 -71 41 -6 83 -12 93 -14 71 -14 223 -21
438 -20 219 0 280 3 395 19 14 2 50 7 80 10 30 4 64 9 75 11 445 81 833 227
1202 450 89 54 304 203 323 224 3 3 28 23 55 45 114 91 340 312 430 420 27 33
52 62 55 65 17 14 146 190 202 276 106 161 221 375 282 524 15 36 33 79 41 95
36 78 132 392 151 490 2 11 8 40 14 65 10 46 25 134 35 205 4 22 8 50 10 63
20 121 27 583 12 732 -5 41 -10 91 -12 110 -3 31 -14 103 -30 195 -3 17 -12
62 -21 100 -9 39 -18 80 -20 92 -16 82 -98 335 -157 483 -29 74 -157 332 -197
400 -18 30 -38 64 -44 75 -101 179 -298 427 -496 625 -157 158 -196 192 -350
309 -314 238 -650 414 -1012 530 -88 28 -227 66 -274 75 -10 2 -55 11 -99 21
-44 9 -98 18 -120 21 -22 3 -49 7 -61 9 -11 2 -45 7 -75 10 -30 4 -67 9 -84
11 -34 7 -550 15 -556 10z m391 -340 c197 -12 348 -35 555 -85 673 -165 1294
-574 1709 -1125 52 -69 186 -264 186 -271 0 -2 22 -41 48 -87 70 -121 140
-269 189 -398 42 -111 118 -359 128 -419 3 -19 7 -37 9 -40 2 -3 7 -24 10 -46
4 -22 11 -65 16 -95 17 -98 19 -114 25 -185 4 -38 8 -86 11 -105 5 -55 5 -378
-1 -450 -6 -69 -31 -271 -39 -306 -2 -12 -7 -39 -10 -60 -21 -132 -115 -440
-181 -594 -137 -318 -289 -563 -504 -815 -92 -106 -439 -461 -445 -454 -2 2
-59 130 -126 284 -67 154 -133 304 -146 333 -13 29 -24 55 -24 58 0 3 -14 35
-30 71 -16 35 -30 66 -30 68 0 3 -11 28 -24 57 -94 207 -175 403 -168 410 4 4
115 54 247 112 l240 104 16 -32 c9 -17 56 -123 104 -236 49 -113 94 -213 100
-223 11 -16 19 -8 70 70 174 264 301 576 364 898 83 422 52 896 -86 1295 -161
469 -417 834 -828 1179 -26 22 -238 166 -290 198 -65 39 -247 128 -345 168
-103 42 -345 116 -416 128 -16 3 -56 10 -89 15 -237 42 -523 48 -771 17 -157
-21 -356 -70 -529 -132 -38 -13 -77 -27 -86 -29 -13 -4 -37 46 -117 242 -102
247 -108 274 -67 274 7 0 34 9 61 19 50 20 81 30 89 31 3 0 22 7 42 15 96 37
335 92 498 115 44 6 94 13 110 15 17 3 84 8 150 11 66 4 121 7 122 8 3 3 143
-2 253 -8z m-1807 -1257 c153 -352 277 -642 275 -643 -3 -3 -284 -124 -421
-183 l-78 -33 -18 43 c-10 23 -58 134 -106 247 -48 113 -91 209 -96 214 -6 7
-91 -114 -141 -203 -26 -45 -110 -214 -131 -261 -62 -141 -143 -414 -167 -570
-7 -41 -14 -84 -16 -95 -23 -124 -23 -541 0 -671 11 -60 16 -93 22 -129 5 -35
11 -66 28 -135 81 -331 230 -645 439 -925 90 -120 331 -370 442 -456 279 -219
599 -382 911 -465 143 -38 295 -67 424 -80 145 -14 471 -9 580 10 14 2 59 10
100 16 107 16 327 75 437 116 52 20 96 34 98 32 4 -5 192 -461 199 -484 5 -18
-5 -24 -111 -62 -100 -36 -261 -86 -313 -97 -101 -22 -165 -36 -192 -40 -18
-3 -58 -10 -88 -15 -210 -35 -623 -43 -800 -16 -23 4 -64 10 -150 21 -19 3
-46 7 -60 10 -14 3 -41 8 -60 11 -19 3 -94 21 -165 39 -760 194 -1428 688
-1852 1369 -215 346 -381 808 -428 1196 -3 25 -8 61 -11 80 -16 116 -22 439
-10 575 21 243 68 486 133 690 128 399 353 803 612 1095 48 54 425 439 431
440 3 0 130 -288 283 -641z m1216 -604 c150 -87 353 -205 841 -490 234 -136
445 -259 470 -273 25 -14 56 -32 70 -42 14 -9 105 -63 203 -120 196 -113 230
-145 243 -226 9 -63 -2 -107 -39 -155 -32 -41 -88 -75 -1057 -638 -231 -135
-603 -352 -650 -379 -175 -104 -182 -107 -251 -107 -55 0 -72 5 -107 28 -23
15 -52 46 -64 70 l-23 42 -2 1091 c-1 762 1 1102 9 1127 14 45 65 102 109 122
19 8 58 14 88 13 45 -1 68 -10 160 -63z"/>
</g>
</svg>
